<?xml version="1.0"?>
<svg width="356.75" height="309.36" xmlns="http://www.w3.org/2000/svg" xmlns:svg="http://www.w3.org/2000/svg">
 <style type="text/css">.st0{fill:#E20613;}
	.st1{fill:none;}
	.st2{fill:#333333;}
	.st3{font-family:&#x27;Poppins-Regular&#x27;;}
	.st4{font-size:42px;}
	.st5{fill:#FF0000;}</style>
 <g class="layer">
  <title>Layer 1</title>
  <g id="svg_1">
   <path class="st0" d="m82.3,98.42c6.17,-19.54 18.1,-36.49 33.78,-48.85c17.15,-13.52 38.78,-21.57 62.27,-21.57c23.49,0 45.12,8.05 62.24,21.58c15.71,12.35 27.64,29.31 33.78,48.85c21.7,1.49 41.36,10.91 56.03,25.41c15.98,15.83 26.03,37.68 26.3,61.8c0.02,2.41 0.05,-0.84 0.05,0.97c0,24.41 -9.89,46.48 -25.9,62.49c-37.11,37.11 -119.89,34.35 -161.82,8.23c-4.33,1.86 -8.7,3.6 -13.12,5.2c-23.44,8.5 -47.4,12.98 -68.83,12.33c-23.07,-0.67 -44.67,-9.17 -61.25,-25.75c-18.78,-18.81 -27.67,-45.54 -25.51,-70.2c1.86,-21.45 11.48,-40.74 25.98,-55.09c14.66,-14.48 34.3,-23.9 56,-25.4l0,0zm235.75,137.87c12.73,-12.73 20.58,-30.3 20.58,-49.69c0,-2.41 0.05,0.99 0.03,-0.82c-0.2,-19.12 -8.2,-36.47 -20.93,-49.07c-12.73,-12.58 -30.2,-20.38 -49.34,-20.38c-2.41,0 -7.98,0.05 -7.98,0.05l-1.69,-7.01c-4.4,-18.3 -14.92,-34.25 -29.28,-45.56c-14.04,-11.09 -31.79,-17.67 -51.08,-17.67c-19.29,0 -37.04,6.59 -51.08,17.67c-14.37,11.31 -24.91,27.27 -29.28,45.56l-1.69,7.01c0,0 -5.57,-0.05 -7.98,-0.05c-19.17,0 -36.62,7.81 -49.34,20.38c-11.14,11.04 -18.67,25.68 -20.51,41.98c-2.26,19.91 4.7,42.11 20.18,57.6c9.97,9.99 22.97,16.98 37.46,19.51c8.23,1.19 16.63,1.29 24.91,0.67c15.46,-1.14 32.12,-4.92 48.65,-10.91c-13.52,-9.74 -26.4,-22.75 -36.76,-40.12c-14.92,-25.01 -13.55,-46.61 -4.4,-61.28c7.58,-12.18 20.96,-19.81 35.27,-20.18c13.6,-0.35 27.77,5.69 37.98,19.74c12.21,-7.33 28.86,-10.59 43.15,-7.9c25.03,4.67 38.43,31.72 23.76,60.28c-11.66,22.67 -37.96,39.82 -58.32,50.91c36.38,13.99 97.48,19.48 127.69,-10.72l0,0zm-189.67,-40.12c11.33,18.99 26.27,32.02 41.49,40.99c19.39,-9.15 36.94,-21.05 50.58,-33.71c31.22,-28.94 10.94,-57.25 -20.31,-48.23c-10.24,2.98 -16.03,8.58 -24.53,14.72c-6.61,-13.13 -14.09,-28.36 -31.42,-27.92c-8.25,0.2 -15.96,4.67 -20.33,11.68c-5.92,9.5 -6.31,24.27 4.52,42.47l0,0z" id="svg_2"/>
  </g>
  <rect class="st1" height="37.36" id="svg_3" width="277.59" x="61.07" y="260.51"/>
  <polyline class="st1" id="svg_8" points="400.92,15.68 400.92,-1.56 433.1,-1.56 "/>
 </g>
</svg>